<svg width="28" height="28" viewBox="0 0 28 28" fill="none" xmlns="http://www.w3.org/2000/svg">
<path d="M19.9994 0H8.00063C3.58257 0 0 3.58256 0 8.00062V19.9994C0 24.4174 3.58257 28 8.00063 28H19.9994C24.4174 28 28 24.4174 28 19.9994V8.00062C28 3.58256 24.4174 0 19.9994 0Z" fill="black"/>
<path d="M6.63123 8.11224C8.27607 8.11249 8.46411 8.11229 12.4665 8.11238C16.2049 8.11246 18.2131 8.13765 20.0251 10.6361C21.8372 13.1346 20.2657 16.8634 20.2657 16.8634L20.6601 18.7846C20.9296 20.0973 19.4202 21.0366 18.3615 20.2151L17.0523 19.1992C16.9106 19.0892 16.7205 19.0687 16.5536 19.1346C15.2105 19.6652 13.4971 19.746 11.9356 19.6548C9.41266 19.5074 7.69377 17.2525 7.69377 14.7253V12.733" stroke="white" stroke-width="2.14084"/>
</svg>
