<svg xmlns="http://www.w3.org/2000/svg" viewBox="0 0 500 500"><g id="freepik--background-simple--inject-176"><path d="M433.62,110.35q-2.3-3.84-4.8-7.53c-22.23-32.66-59.23-55-95.19-65.14a204.26,204.26,0,0,0-48.08-7.36c-105.91-3.85-144.82,83.47-178.94,106s-86.49,61-79.92,141.76c5,61.42,39.93,120.16,103.75,146.88a180.85,180.85,0,0,0,22.15,7.65,212,212,0,0,0,46.77,7.19c48.25,2.15,87.43-9.49,125.75-38.77,8.91-6.81,17.77-14.49,29.33-15.33,8.41-.61,16.37,2.4,7.59,10.53-10.32,9.54,1.59,28.31,27.79,15.27,43.77-21.78,61.77-68.78,70.25-116.57C470.48,236.26,465.44,163.32,433.62,110.35Z" style="fill:#000000"></path><path d="M433.62,110.35q-2.3-3.84-4.8-7.53c-22.23-32.66-59.23-55-95.19-65.14a204.26,204.26,0,0,0-48.08-7.36c-105.91-3.85-144.82,83.47-178.94,106s-86.49,61-79.92,141.76c5,61.42,39.93,120.16,103.75,146.88a180.85,180.85,0,0,0,22.15,7.65,212,212,0,0,0,46.77,7.19c48.25,2.15,87.43-9.49,125.75-38.77,8.91-6.81,17.77-14.49,29.33-15.33,8.41-.61,16.37,2.4,7.59,10.53-10.32,9.54,1.59,28.31,27.79,15.27,43.77-21.78,61.77-68.78,70.25-116.57C470.48,236.26,465.44,163.32,433.62,110.35Z" style="fill:#fff;opacity:0.7000000000000001"></path></g><g id="freepik--Plant--inject-176"><path d="M149.94,384.08c-2.64.83-8.79,0-8.79,0s1.77-3.89,1.91-4.12c1.66-2.68,6.45-6.88,9.88-6a4.18,4.18,0,0,1,2.76,5.57C154.85,381.87,152.19,383.38,149.94,384.08Z" style="fill:#263238"></path><path d="M92.66,382.36c-.06,0-.67-4.21-.68-4.49-.09-3.15,1.59-9.29,4.92-10.47a4.17,4.17,0,0,1,5.37,3.13c.59,2.42-.8,5.15-2.28,7C98.24,379.65,92.66,382.36,92.66,382.36Z" style="fill:#263238"></path><path d="M93.73,427.75c2.06.26,6.14-.9,7.28-1.24.19,1.76.41,3.49.72,5.19.14.73.24,1.49.42,2.18s.34,1.4.5,2.09c.39,1.41.74,2.72,1.14,4,.19.67.39,1.28.59,1.92-.49-1-1.29-2.6-1.38-2.74-1.52-2.32-5.81-5.91-8.8-5.09A3.67,3.67,0,0,0,91.88,439c.79,2,3.17,3.32,5.16,3.89,2.19.63,7-.06,7.6-.15.5,1.56,1,3.08,1.48,4.49.32.93.63,1.8.93,2.65h2c-.4-1-.81-2.11-1.24-3.27s-.94-2.61-1.42-4c.54-.23,4.72-2,6.4-3.63a39,39,0,0,0,4.13,2.23c-.46,1.58-.88,3.12-1.25,4.56s-.71,2.81-1,4.11h2c.25-1.17.52-2.37.82-3.67s.66-2.7,1-4.12c.59.11,5.38,1,7.59.46,2-.49,4.44-1.68,5.3-3.69a3.67,3.67,0,0,0-2.11-5c-3-.93-7.39,2.48-9,4.74-.1.15-1.12,2-1.62,2.94.22-.86.45-1.71.7-2.6.35-1.28.76-2.63,1.16-3.93l.69-2c.22-.7.52-1.33.78-2,.4-1,.86-2,1.32-3,1.28.43,5.07,1.65,7.07,1.48s4.64-1,5.8-2.84a3.68,3.68,0,0,0-1.32-5.31c-2.79-1.37-7.68,1.34-9.61,3.33-.07.06-.43.52-.86,1.08.48-1,1-1.92,1.47-2.87,1.46-2.7,3-5.4,4.6-8.12l1-1.7c1.08.37,5.18,1.72,7.27,1.54s4.64-1,5.8-2.84a3.67,3.67,0,0,0-1.32-5.3c-2.79-1.37-7.68,1.33-9.61,3.32-.07.07-.51.63-1,1.25.83-1.49,1.64-3,2.4-4.49a65.51,65.51,0,0,0,3.41-8c.38.14,5.15,1.83,7.47,1.62,2.07-.18,4.64-1,5.81-2.84a3.67,3.67,0,0,0-1.33-5.3c-2.78-1.37-7.68,1.33-9.61,3.32-.14.14-1.69,2.15-2.22,2.89l0-.09a46.88,46.88,0,0,0,1.89-8.31,63.65,63.65,0,0,0,.62-7.58c.08-2.36,0-4.51-.07-6.42-.05-1-.12-2-.19-2.86l.05,0s1.3-3.53,1.35-3.76c.61-2.7.2-8.28-2.47-9.87a3.67,3.67,0,0,0-5.16,1.79c-.92,2-.19,4.58.79,6.41s4.43,4.6,5.29,5.27c.06.92.11,1.9.14,3,0,1.91.06,4.06-.07,6.41,0,.62-.09,1.29-.14,1.94-.15-1.11-.37-2.64-.41-2.78-.7-2.68-3.64-7.45-6.73-7.62a3.67,3.67,0,0,0-3.77,4c.1,2.19,1.95,4.16,3.66,5.33s6.2,2.07,7.17,2.24c-.13,1.44-.3,2.92-.56,4.45a46.85,46.85,0,0,1-2,8.18l-.17,0c0-1-.09-3.23-.11-3.41-.41-2.75-2.8-7.81-5.86-8.32a3.67,3.67,0,0,0-4.17,3.53c-.15,2.19,1.48,4.34,3,5.7,1.81,1.55,6.86,3,7.05,3.07a64.52,64.52,0,0,1-3.47,7.63c-1,1.83-2,3.65-3.1,5.46,0-.73-.09-3.61-.12-3.82-.4-2.74-2.79-7.8-5.85-8.31A3.68,3.68,0,0,0,121,403c-.14,2.18,1.48,4.34,3.05,5.69,1.76,1.52,6.6,2.94,7,3.06-.49.82-1,1.65-1.48,2.47-1.62,2.68-3.26,5.35-4.79,8.05-.53.93-1,1.87-1.52,2.81,0-1.1-.08-3.1-.11-3.27-.4-2.74-2.79-7.8-5.85-8.32a3.68,3.68,0,0,0-4.18,3.53c-.14,2.19,1.48,4.34,3,5.7s5.61,2.63,6.75,3c-.81,1.57-1.58,3.14-2.26,4.72-.29.69-.62,1.38-.85,2.06s-.49,1.35-.74,2c-.45,1.39-.88,2.68-1.27,4-.2.66-.37,1.28-.56,1.93.15-1.12.36-2.89.36-3.05,0-2.78-1.58-8.14-4.53-9.11a3.67,3.67,0,0,0-4.66,2.85,4.48,4.48,0,0,0-.1.81,14.37,14.37,0,0,0-2.31,6.82c0,.17.16,2.28.27,3.35-.29-.84-.57-1.68-.85-2.56-.42-1.26-.81-2.61-1.2-3.92l-.54-2.07c-.2-.7-.31-1.4-.46-2.1-.21-1-.38-2.13-.54-3.21,1.31-.34,5.15-1.42,6.72-2.66s3.32-3.38,3.27-5.57a3.67,3.67,0,0,0-4-3.69c-3.08.38-5.67,5.34-6.19,8.07,0,.09-.06.67-.11,1.37-.13-1.06-.26-2.12-.36-3.2-.27-3.06-.45-6.18-.64-9.31,0-.65-.09-1.31-.13-2,1.1-.28,5.27-1.41,6.91-2.72s3.33-3.38,3.28-5.57a3.68,3.68,0,0,0-4-3.69c-3.08.39-5.67,5.35-6.19,8.07,0,.1-.07.8-.13,1.59-.13-1.7-.28-3.4-.48-5.07A66,66,0,0,0,99,395.33c.39-.1,5.3-1.33,7.12-2.78,1.62-1.29,3.33-3.38,3.28-5.57a3.68,3.68,0,0,0-4-3.69c-3.08.39-5.67,5.35-6.19,8.07,0,.2-.22,2.73-.26,3.64a.36.36,0,0,0,0-.1,47.09,47.09,0,0,0-3-8,66.17,66.17,0,0,0-3.67-6.67c-1.24-2-2.49-3.77-3.61-5.32-.61-.84-1.18-1.59-1.73-2.28H87s-.87-3.65-1-3.87c-1-2.59-4.4-7-7.5-6.87a3.68,3.68,0,0,0-3.33,4.34c.33,2.16,2.38,3.92,4.2,4.91s6.24,1.39,7.32,1.47c.56.74,1.14,1.53,1.76,2.42,1.08,1.57,2.29,3.35,3.48,5.37.31.54.63,1.14.95,1.71-.74-.85-1.76-2-1.88-2.1-2.06-1.85-7.14-4.21-9.81-2.64a3.68,3.68,0,0,0-1,5.38c1.29,1.77,3.92,2.39,6,2.43s6.31-1.7,7.22-2.08c.69,1.27,1.36,2.59,2,4a47.36,47.36,0,0,1,2.8,8l-.16.07c-.59-.86-1.86-2.65-2-2.78-1.85-2.07-6.63-5-9.47-3.71a3.68,3.68,0,0,0-1.53,5.25c1.08,1.9,3.63,2.81,5.68,3.07,2.37.3,7.38-1.27,7.57-1.33A64.42,64.42,0,0,1,99.66,404c.2,2.07.32,4.16.42,6.27-.39-.62-2.06-3-2.2-3.12-1.85-2.07-6.63-5-9.47-3.71a3.68,3.68,0,0,0-1.53,5.25c1.08,1.9,3.63,2.81,5.68,3.07,2.31.3,7.13-1.19,7.53-1.32,0,1,.1,1.91.13,2.87.13,3.13.24,6.27.44,9.36.07,1.08.18,2.13.29,3.19-.62-.91-1.78-2.54-1.9-2.67-1.85-2.07-6.63-5-9.47-3.7a3.66,3.66,0,0,0-1.53,5.24C89.13,426.58,91.68,427.49,93.73,427.75Z" style="fill:#263238"></path></g><g id="freepik--Symbol--inject-176"><path d="M299.66,130.78q-4-2.1-7.48-7.6a23.55,23.55,0,0,1-3.51-13q0-7.24,3.86-10.87t11.34-5.5L322.1,89.4q11.7-3,11.69-11.22,0-4.44-4.32-7.72t-14.85-3.27a64.23,64.23,0,0,0-18,2.45,53.32,53.32,0,0,0-13.56,5.73A28.9,28.9,0,0,1,276.28,68a18.73,18.73,0,0,1-2.81-10.41A17,17,0,0,1,277,47a25.88,25.88,0,0,1,9.7-7.48,55.84,55.84,0,0,1,14.73-4.33,117,117,0,0,1,18.82-1.4Q347.82,33.75,362,46t14.14,32.15q0,37.41-52.84,47.93Zm-7.72,30.63q0-9.58,6-15.78t16.49-6.2q10.51,0,16.48,6.2t6,15.78q0,9.6-6,15.78t-16.48,6.2q-10.53,0-16.49-6.2T291.94,161.41Z" style="fill:#263238"></path><path d="M314.39,183.89c-7.12,0-12.79-2.14-16.85-6.35s-6.1-9.63-6.1-16.13,2.05-11.92,6.1-16.13,9.73-6.35,16.85-6.35,12.79,2.14,16.84,6.35,6.1,9.64,6.1,16.13-2.05,11.93-6.1,16.13S321.51,183.89,314.39,183.89Zm0-44c-6.84,0-12.27,2-16.13,6s-5.82,9.21-5.82,15.43,2,11.42,5.82,15.44,9.29,6,16.13,6,12.26-2,16.12-6,5.82-9.21,5.82-15.44S334.38,150,330.51,146,321.23,139.93,314.39,139.93Zm-14.73-8.65a.53.53,0,0,1-.24-.06c-2.71-1.43-5.29-4-7.67-7.77a24.24,24.24,0,0,1-3.58-13.24c0-4.95,1.35-8.73,4-11.24s6.52-4.35,11.57-5.61L322,88.91c7.6-2,11.3-5.49,11.3-10.73,0-2.78-1.38-5.25-4.12-7.32s-7.68-3.17-14.55-3.17a64,64,0,0,0-17.86,2.43,53.34,53.34,0,0,0-13.43,5.67.53.53,0,0,1-.58,0,29.71,29.71,0,0,1-6.89-7.49A19.25,19.25,0,0,1,273,57.6a17.53,17.53,0,0,1,3.61-10.94A26.43,26.43,0,0,1,286.47,39a56.45,56.45,0,0,1,14.86-4.37,118.08,118.08,0,0,1,18.9-1.41c18.43,0,32.58,4.17,42.07,12.4s14.31,19.19,14.31,32.53c0,25.09-17.91,41.38-53.24,48.42l-23.62,4.67Zm15-64.59c7.09,0,12.19,1.13,15.15,3.37s4.52,5,4.52,8.12c0,5.68-4.05,9.62-12.06,11.7L304,94.33c-4.88,1.22-8.63,3-11.12,5.37s-3.7,5.84-3.7,10.51a23.19,23.19,0,0,0,3.43,12.71c2.23,3.5,4.63,6,7.14,7.34l23.44-4.64c34.79-6.93,52.43-22.89,52.43-47.44,0-13-4.7-23.73-14-31.78s-23.23-12.15-41.41-12.15a116.08,116.08,0,0,0-18.74,1.4,55.58,55.58,0,0,0-14.6,4.28,25.45,25.45,0,0,0-9.51,7.34A16.51,16.51,0,0,0,274,57.6a18.25,18.25,0,0,0,2.73,10.13,28.47,28.47,0,0,0,6.39,7,54.91,54.91,0,0,1,13.39-5.6A64.86,64.86,0,0,1,314.62,66.69Z" style="fill:#263238"></path></g><g id="freepik--Character--inject-176"><polygon points="217.09 289.92 219.07 450.06 297.4 450.06 290.96 291.9 217.09 289.92" style="fill:#263238"></polygon><path d="M297.4,450.56H219.07a.5.5,0,0,1-.5-.5l-2-160.14a.55.55,0,0,1,.15-.36.49.49,0,0,1,.37-.14l73.87,2a.51.51,0,0,1,.49.48L297.9,450a.46.46,0,0,1-.14.36A.48.48,0,0,1,297.4,450.56Zm-77.84-1h77.32l-6.4-157.17-72.89-2Z" style="fill:#263238"></path><polygon points="217.09 232.71 219.07 392.85 297.4 392.85 290.96 234.69 217.09 232.71" style="fill:#fff"></polygon><path d="M297.4,393.35H219.07a.5.5,0,0,1-.5-.5l-2-160.13a.51.51,0,0,1,.15-.36.46.46,0,0,1,.37-.15l73.87,2a.49.49,0,0,1,.49.47l6.44,158.16a.48.48,0,0,1-.14.37A.51.51,0,0,1,297.4,393.35Zm-77.84-1h77.32l-6.4-157.17-72.89-2Z" style="fill:#263238"></path><polygon points="244.34 249.98 252.5 263.58 238.23 366.22 259.75 387.75 273.8 360.79 257.71 264.26 265.87 253.16 256.81 238.65 244.34 249.98" style="fill:#263238"></polygon><path d="M259.75,388.25a.47.47,0,0,1-.35-.15l-21.53-21.52a.52.52,0,0,1-.14-.43L252,263.68l-8.06-13.44a.49.49,0,0,1,.09-.63l12.46-11.33a.54.54,0,0,1,.41-.12.49.49,0,0,1,.35.23l9.06,14.5a.5.5,0,0,1,0,.56l-8,10.93,16.05,96.32a.51.51,0,0,1-.05.32l-14,27a.5.5,0,0,1-.37.26Zm-21-22.2,20.86,20.86,13.66-26.21-16.06-96.36a.52.52,0,0,1,.09-.38l8-10.83-8.57-13.7L245,250.08l8,13.24a.55.55,0,0,1,.07.33Z" style="fill:#263238"></path><polygon points="252.5 263.58 252.19 265.83 261.29 259.39 265.87 253.16 261.5 246.16 247.85 255.82 252.5 263.58" style="fill:#000000"></polygon><path d="M252.19,266.33a.5.5,0,0,1-.26-.08.5.5,0,0,1-.24-.49l.29-2.08-4.56-7.6a.49.49,0,0,1,.14-.67l13.65-9.65a.53.53,0,0,1,.39-.09.5.5,0,0,1,.32.23l4.37,7a.5.5,0,0,1,0,.56l-4.57,6.23a.6.6,0,0,1-.12.11l-9.1,6.44A.53.53,0,0,1,252.19,266.33ZM248.51,256l4.42,7.36a.55.55,0,0,1,.07.33l-.16,1.1,8.1-5.72,4.33-5.9-3.91-6.25Z" style="fill:#263238"></path><polygon points="247.78 297.55 261.63 287.75 259.68 276.05 249.79 283.04 247.78 297.55" style="fill:#000000"></polygon><path d="M247.78,298a.48.48,0,0,1-.26-.07.51.51,0,0,1-.24-.49l2-14.51a.5.5,0,0,1,.21-.34l9.88-7a.49.49,0,0,1,.48-.05.51.51,0,0,1,.3.38l1.95,11.7a.51.51,0,0,1-.2.49L248.07,298A.52.52,0,0,1,247.78,298Zm2.48-14.71-1.83,13.14,12.65-9-1.76-10.6Z" style="fill:#263238"></path><polygon points="260.15 386.98 270.94 366.27 251.81 379.81 259.47 387.47 260.15 386.98" style="fill:#000000"></polygon><path d="M259.47,388a.51.51,0,0,1-.36-.15l-7.65-7.66a.49.49,0,0,1-.15-.4.49.49,0,0,1,.21-.36l19.13-13.53a.5.5,0,0,1,.62,0,.49.49,0,0,1,.11.6L260.6,387.21a.55.55,0,0,1-.16.18l-.68.48A.46.46,0,0,1,259.47,388Zm.68-1h0Zm-7.57-7.11,6.94,6.94.24-.17,9.78-18.76Z" style="fill:#263238"></path><polygon points="263.94 301.63 245.38 314.76 243.37 329.26 265.89 313.33 263.94 301.63" style="fill:#000000"></polygon><path d="M243.37,329.76a.48.48,0,0,1-.26-.07.5.5,0,0,1-.24-.5l2-14.5a.52.52,0,0,1,.2-.34l18.56-13.12a.5.5,0,0,1,.79.32l1.94,11.7a.47.47,0,0,1-.2.49l-22.52,15.93A.52.52,0,0,1,243.37,329.76ZM245.85,315,244,328.19l21.33-15.09-1.77-10.6Z" style="fill:#263238"></path><polygon points="269.13 332.76 240.02 353.35 238.23 366.22 239.09 367.08 271.08 344.46 269.13 332.76" style="fill:#000000"></polygon><path d="M239.09,367.58a.5.5,0,0,1-.36-.14l-.86-.86a.52.52,0,0,1-.14-.43l1.79-12.87a.54.54,0,0,1,.21-.34l29.11-20.59a.5.5,0,0,1,.78.33l1.95,11.7a.53.53,0,0,1-.2.49l-32,22.62A.52.52,0,0,1,239.09,367.58Zm-.33-1.53.38.38,31.39-22.2-1.76-10.6-28.29,20Z" style="fill:#263238"></path><polygon points="255.9 243.41 235.96 264.94 229.16 237.07 231.29 228.53 255.9 243.41" style="fill:#fff"></polygon><path d="M236,265.44l-.13,0a.5.5,0,0,1-.36-.36l-6.79-27.87a.49.49,0,0,1,0-.24l2.13-8.54a.52.52,0,0,1,.29-.34.51.51,0,0,1,.45,0L256.16,243a.5.5,0,0,1,.24.36.51.51,0,0,1-.13.41l-19.94,21.53A.52.52,0,0,1,236,265.44Zm-6.28-28.37,6.55,26.85,18.89-20.4-23.5-14.21Z" style="fill:#263238"></path><polygon points="255.9 243.41 271.08 263.35 278.33 235.94 275.84 229.59 255.9 243.41" style="fill:#fff"></polygon><path d="M271.08,263.85a.53.53,0,0,1-.4-.19l-15.18-20a.46.46,0,0,1-.09-.38.48.48,0,0,1,.21-.33l19.93-13.82a.53.53,0,0,1,.44-.07.56.56,0,0,1,.32.3l2.49,6.34a.55.55,0,0,1,0,.31l-7.25,27.42a.48.48,0,0,1-.39.36Zm-14.46-20.32,14.24,18.71L277.81,236l-2.2-5.6Z" style="fill:#263238"></path><path d="M113.6,228.27s-6.8-13.84-10.2-18.37-6.81-7.26-10.66-7.94-6.58-.45-9.53-1.59-8.85-2.72-10.43-4.76-4.54-.68-3.18,2.72S75.73,204,75.73,204l3.85,1.81s-12.47,1.82-13.38,2.5-11.8,1.59-11.8,1.59,4.77,8.39,11.57,12.25,28.13.68,28.13.68l6.35,13.38Z" style="fill:#fff"></path><path d="M100.45,236.71l-.15,0a.5.5,0,0,1-.3-.27l-6.2-13c-3,.42-21.61,2.87-28.07-.79C58.88,218.7,54.17,210.49,54,210.14a.51.51,0,0,1,0-.48.49.49,0,0,1,.4-.26c5.19-.43,10.93-1.11,11.55-1.49.79-.6,8-1.76,12-2.35l-2.36-1.11c-.2-.09-5-2.39-6.37-5.93-.87-2.18-.12-3.56.79-4.08a2.52,2.52,0,0,1,3.24.86c1.14,1.47,5,2.8,7.86,3.77.88.3,1.7.58,2.36.83A20.17,20.17,0,0,0,88.88,201c1.22.12,2.49.25,3.94.51,3.84.67,7.32,3.26,11,8.13,3.39,4.52,10,17.88,10.25,18.45a.5.5,0,0,1-.19.65l-13.15,7.94A.59.59,0,0,1,100.45,236.71ZM94.1,222.33a.49.49,0,0,1,.45.28l6.11,12.88L113,228.08c-1.16-2.33-7-13.87-10-17.88-3.5-4.66-6.78-7.12-10.35-7.75-1.42-.25-2.67-.37-3.87-.49A21.32,21.32,0,0,1,83,200.84c-.65-.25-1.45-.53-2.32-.82-3.12-1.07-7-2.4-8.33-4.1a1.55,1.55,0,0,0-1.95-.62c-.57.33-1,1.26-.36,2.84,1.27,3.19,5.82,5.39,5.87,5.41l3.85,1.81a.52.52,0,0,1,.29.53.51.51,0,0,1-.43.42c-5.89.86-12.5,2-13.16,2.4-.86.65-8,1.34-11.24,1.62,1.29,2,5.48,8.27,11,11.38,6.58,3.73,27.59.65,27.8.62Z" style="fill:#263238"></path><path d="M50.11,207.66s-3.5-7.45-3.21-9.06,3.36-.58,4.38,1.61,4.53,7.45,4.53,7.45Z" style="fill:#fff"></path><path d="M55.81,208.16h-5.7a.51.51,0,0,1-.45-.29c-.6-1.27-3.56-7.68-3.25-9.36a1.39,1.39,0,0,1,1.27-1.18A4.55,4.55,0,0,1,51.74,200c1,2.14,4.45,7.34,4.49,7.39a.51.51,0,0,1-.42.78Zm-5.38-1h4.45a77.58,77.58,0,0,1-4.05-6.74,3.58,3.58,0,0,0-3-2.1c-.32,0-.39.2-.42.37C47.21,199.71,49.11,204.3,50.43,207.16Z" style="fill:#263238"></path><path d="M43.9,204.11s5.44,11.57,9.07,14.74,10.89,3.41,10.89,3.41-8.62-9.08-10.43-12.48S45,198.21,43.9,204.11Z" style="fill:#fff"></path><path d="M63.86,222.76h0c-.3,0-7.48-.27-11.2-3.53s-9-14.43-9.19-14.91a.45.45,0,0,1,0-.3c.28-1.49.93-2.32,1.92-2.47,2.82-.43,7.19,5.47,8.54,8,1.76,3.3,10.27,12.27,10.35,12.36a.51.51,0,0,1-.36.85ZM44.42,204.05c.65,1.36,5.59,11.55,8.88,14.43,2.56,2.24,7.11,3,9.31,3.18-2.26-2.42-8.13-8.84-9.63-11.64s-5.51-7.79-7.5-7.48C45,202.62,44.63,203.12,44.42,204.05Z" style="fill:#263238"></path><path d="M48.28,205.13s5.44,11.57,9.07,14.75,10.89,3.4,10.89,3.4-8.62-9.07-10.43-12.48S49.41,199.24,48.28,205.13Z" style="fill:#fff"></path><path d="M68.24,223.78h0c-.3,0-7.47-.27-11.2-3.53s-9-14.43-9.19-14.9a.48.48,0,0,1,0-.31q.43-2.23,1.92-2.46c2.83-.44,7.19,5.46,8.54,8,1.76,3.3,10.27,12.27,10.35,12.37a.49.49,0,0,1,.1.54A.51.51,0,0,1,68.24,223.78ZM48.8,205.07c.65,1.36,5.59,11.55,8.88,14.43,2.57,2.24,7.11,3,9.32,3.18-2.27-2.42-8.14-8.83-9.63-11.64s-5.52-7.77-7.51-7.47C49.36,203.64,49,204.15,48.8,205.07Z" style="fill:#263238"></path><path d="M97.5,216.93s-1.14-1.82-5-4.31-24.27,3.85-24.27,3.85-9.3-11.56-10.66-12.7-3.86-1.81-4.31.46,5.67,12,7.26,13.61,7.71,5.44,7.71,5.44a33.43,33.43,0,0,0,11.57,1.81,85.24,85.24,0,0,0,14.29-2.26" style="fill:#fff"></path><path d="M78.84,225.61a34.11,34.11,0,0,1-10.78-1.86L68,223.7c-.25-.16-6.19-3.9-7.79-5.51-1.41-1.41-7.93-11.43-7.4-14.06a2.17,2.17,0,0,1,1.4-1.77,4.23,4.23,0,0,1,3.72,1c1.28,1.07,9.09,10.73,10.52,12.51,3.23-1,20.58-6.15,24.36-3.7s5.09,4.39,5.14,4.46a.49.49,0,0,1-.16.69.48.48,0,0,1-.68-.16h0A17.41,17.41,0,0,0,92.24,213c-3-1.95-18.24,2.16-23.85,3.91a.5.5,0,0,1-.54-.16c-3.2-4-9.54-11.76-10.59-12.63a3.3,3.3,0,0,0-2.75-.86,1.22,1.22,0,0,0-.75,1c-.38,1.88,5.39,11.42,7.12,13.15,1.46,1.46,7,5,7.58,5.35a33.74,33.74,0,0,0,11.33,1.76A85.81,85.81,0,0,0,94,222.34a.5.5,0,0,1,.24,1,86.21,86.21,0,0,1-14.39,2.28C79.49,225.61,79.16,225.61,78.84,225.61Z" style="fill:#263238"></path><polygon points="121.52 240.14 113.35 225.69 93.56 237.63 98.58 249.89 121.52 240.14" style="fill:#fff"></polygon><path d="M98.58,250.39a.65.65,0,0,1-.19,0,.51.51,0,0,1-.27-.27l-5-12.26a.51.51,0,0,1,.21-.62l19.79-11.94a.49.49,0,0,1,.39,0,.52.52,0,0,1,.31.23L122,239.9a.51.51,0,0,1,0,.4.49.49,0,0,1-.28.3l-22.94,9.75A.65.65,0,0,1,98.58,250.39Zm-4.4-12.55,4.67,11.39,22-9.33-7.64-13.52Z" style="fill:#263238"></path><path d="M229.16,237.07l-7.71,213H165.52l11.31-151.78s-30.48,33.31-33.94,35.19-7.85-4.08-7.85-4.08L93.87,248.63l24.51-13.51,27,44,4.08-2.83,3.14,1.57s28-49.33,30.17-50.59,12.57-.63,12.57-.63l27,2.2,9.15-2Z" style="fill:#000000"></path><path d="M221.45,450.56H165.52a.51.51,0,0,1-.37-.16A.53.53,0,0,1,165,450l11.2-150.34c-5.32,5.8-29.91,32.5-33.09,34.23-3.79,2.07-8.31-4-8.5-4.23L93.42,248.86a.51.51,0,0,1,.21-.67l24.51-13.51a.51.51,0,0,1,.67.17l26.74,43.55,3.66-2.53a.5.5,0,0,1,.5,0l2.72,1.36c3.79-6.68,27.92-49.11,30.12-50.36s11.77-.76,12.85-.7l27,2.2,9.07-2a.49.49,0,0,1,.46.13.51.51,0,0,1,.13.47l-2.36,10.17L222,450.07A.51.51,0,0,1,221.45,450.56Zm-55.39-1H221l7.69-212.51a.44.44,0,0,1,0-.1l2.19-9.45-8.37,1.82h-.15l-27-2.2c-2.83-.17-10.58-.41-12.28.56-1.68,1.14-18.85,30.77-30,50.41a.5.5,0,0,1-.66.2l-2.88-1.44-3.84,2.66a.49.49,0,0,1-.39.08.5.5,0,0,1-.32-.23L118.2,235.78,94.54,248.83l40.94,80.33h0s4.14,5.53,7.17,3.87c2.68-1.46,23.29-23.59,33.81-35.09a.5.5,0,0,1,.57-.12.51.51,0,0,1,.3.5Z" style="fill:#263238"></path><polygon points="177.14 293.56 179.09 274.16 164.54 311.16 176.83 298.28 177.14 293.56" style="fill:#263238"></polygon><path d="M164.54,311.66a.5.5,0,0,1-.27-.08.5.5,0,0,1-.2-.6l14.56-37a.51.51,0,0,1,.58-.31.5.5,0,0,1,.38.54l-2,19.4-.31,4.7a.5.5,0,0,1-.14.31L164.9,311.5A.48.48,0,0,1,164.54,311.66Zm13.69-34L165.94,309l10.4-10.91.3-4.53v0Zm-1.4,20.57h0Z" style="fill:#263238"></path><path d="M175.57,280.24a.5.5,0,0,1-.49-.43c-.32-2.19-2.43-31.77-2.52-33a.5.5,0,1,1,1-.07c0,.31,2.2,30.8,2.51,33a.5.5,0,0,1-.43.56Z" style="fill:#263238"></path><path d="M173.06,291.55a.5.5,0,0,1-.5-.42l-3.45-22a.49.49,0,0,1,.41-.57.51.51,0,0,1,.58.42l3.45,22a.49.49,0,0,1-.41.57Z" style="fill:#263238"></path><path d="M136.92,299.09a.44.44,0,0,1-.22,0,.5.5,0,0,1-.23-.66l8.17-17a.5.5,0,1,1,.9.43l-8.17,17A.48.48,0,0,1,136.92,299.09Z" style="fill:#263238"></path><path d="M145.72,293.75a.54.54,0,0,1-.22-.05.51.51,0,0,1-.23-.67l6.6-13.2a.49.49,0,0,1,.67-.22.5.5,0,0,1,.23.67l-6.6,13.19A.5.5,0,0,1,145.72,293.75Z" style="fill:#263238"></path><path d="M218.94,335.54a.48.48,0,0,1-.47-.33c-4.83-13.51-8.47-34.44-10.68-49.63a.5.5,0,0,1,.42-.56.51.51,0,0,1,.57.42c2.2,15.14,5.83,36,10.63,49.44a.49.49,0,0,1-.31.63A.45.45,0,0,1,218.94,335.54Z" style="fill:#263238"></path><path d="M207.3,278.9a.51.51,0,0,1-.5-.43c-.6-4.56-.93-7.45-.93-7.47a.51.51,0,0,1,.23-.48l11.48-7.47-14.12-2.3a.49.49,0,0,1-.39-.32.51.51,0,0,1,.09-.5s3.16-3.8,6.25-8.44,13.09-20,13.19-20.1a.51.51,0,0,1,.7-.15.5.5,0,0,1,.14.69c-.1.16-10.09,15.46-13.2,20.12-2.35,3.52-4.72,6.55-5.77,7.85L219,262.28a.5.5,0,0,1,.41.39.51.51,0,0,1-.22.52l-12.31,8c.1.85.4,3.45.89,7.15a.5.5,0,0,1-.43.56Z" style="fill:#263238"></path><path d="M393.73,228.27s6.8-13.84,10.21-18.37,6.8-7.26,10.66-7.94,6.57-.45,9.52-1.59,8.85-2.72,10.44-4.76,4.53-.68,3.17,2.72-6.12,5.67-6.12,5.67l-3.86,1.81s12.48,1.82,13.38,2.5,11.8,1.59,11.8,1.59-4.77,8.39-11.57,12.25-28.12.68-28.12.68l-6.35,13.38Z" style="fill:#fff"></path><path d="M406.88,236.71a.55.55,0,0,1-.25-.07l-13.16-7.94a.51.51,0,0,1-.19-.65c.28-.57,6.87-13.93,10.26-18.45,3.65-4.87,7.14-7.46,11-8.13,1.45-.26,2.72-.39,3.94-.51a20.1,20.1,0,0,0,5.49-1.06c.67-.25,1.48-.53,2.36-.83,2.84-1,6.72-2.3,7.86-3.77a2.51,2.51,0,0,1,3.24-.86c.91.52,1.67,1.9.8,4.08-1.42,3.54-6.18,5.84-6.38,5.93l-2.36,1.11c3.92.59,11.17,1.75,12,2.35.61.38,6.35,1.06,11.54,1.49a.49.49,0,0,1,.39.74c-.19.35-4.91,8.56-11.75,12.44-6.46,3.66-25.12,1.21-28.08.79l-6.19,13a.52.52,0,0,1-.31.27Zm-12.5-8.63,12.29,7.41,6.11-12.88a.51.51,0,0,1,.53-.28c.21,0,21.23,3.11,27.8-.62,5.49-3.11,9.69-9.33,11-11.38-3.21-.28-10.38-1-11.25-1.62-.64-.41-7.26-1.54-13.15-2.4a.49.49,0,0,1-.42-.42.5.5,0,0,1,.28-.53l3.85-1.81c.05,0,4.61-2.23,5.88-5.41.63-1.58.2-2.51-.36-2.84a1.56,1.56,0,0,0-2,.62c-1.32,1.7-5.21,3-8.33,4.1-.86.29-1.66.57-2.32.82a21.32,21.32,0,0,1-5.75,1.12c-1.2.12-2.45.24-3.87.49-3.56.63-6.85,3.09-10.34,7.75C401.33,214.21,395.54,225.75,394.38,228.08Z" style="fill:#263238"></path><path d="M457.22,207.66s3.5-7.45,3.21-9.06-3.36-.58-4.38,1.61-4.53,7.45-4.53,7.45Z" style="fill:#fff"></path><path d="M457.22,208.16h-5.7a.52.52,0,0,1-.44-.27.47.47,0,0,1,0-.51s3.49-5.25,4.49-7.39a4.52,4.52,0,0,1,4-2.66,1.39,1.39,0,0,1,1.27,1.18c.31,1.68-2.65,8.09-3.25,9.36A.51.51,0,0,1,457.22,208.16Zm-4.77-1h4.45c1.33-2.86,3.22-7.45,3-8.47,0-.17-.1-.33-.42-.37a3.59,3.59,0,0,0-3,2.1A77.58,77.58,0,0,1,452.45,207.16Z" style="fill:#263238"></path><path d="M463.43,204.11s-5.44,11.57-9.07,14.74-10.89,3.41-10.89,3.41,8.62-9.08,10.44-12.48S462.3,198.21,463.43,204.11Z" style="fill:#fff"></path><path d="M443.47,222.76a.5.5,0,0,1-.45-.3.51.51,0,0,1,.09-.55c.09-.09,8.6-9.06,10.36-12.36,1.35-2.53,5.72-8.44,8.54-8,1,.15,1.63,1,1.91,2.47a.51.51,0,0,1,0,.3c-.23.48-5.53,11.7-9.2,14.91s-10.9,3.52-11.2,3.53Zm18.21-20.23c-2,0-5.91,4.83-7.33,7.49s-7.37,9.22-9.63,11.64c2.2-.22,6.75-.94,9.31-3.18,3.29-2.88,8.23-13.07,8.88-14.43-.2-.93-.56-1.43-1.05-1.51Z" style="fill:#263238"></path><path d="M459.05,205.13s-5.44,11.57-9.07,14.75-10.89,3.4-10.89,3.4,8.62-9.07,10.44-12.48S457.92,199.24,459.05,205.13Z" style="fill:#fff"></path><path d="M439.09,223.78a.5.5,0,0,1-.45-.3.47.47,0,0,1,.09-.54c.09-.1,8.59-9.07,10.35-12.37,1.35-2.53,5.7-8.43,8.54-8,1,.15,1.64,1,1.92,2.46a.48.48,0,0,1,0,.31c-.22.47-5.53,11.7-9.19,14.9s-10.9,3.52-11.2,3.53Zm18.21-20.23c-2.05,0-5.92,4.83-7.33,7.49-1.5,2.81-7.37,9.22-9.63,11.64,2.2-.22,6.75-.94,9.31-3.18,3.29-2.88,8.23-13.07,8.88-14.43-.2-.92-.56-1.43-1.06-1.5Z" style="fill:#263238"></path><path d="M409.83,216.93s1.14-1.82,5-4.31,24.27,3.85,24.27,3.85,9.3-11.56,10.66-12.7,3.86-1.81,4.31.46-5.67,12-7.26,13.61-7.71,5.44-7.71,5.44a33.43,33.43,0,0,1-11.57,1.81,85,85,0,0,1-14.28-2.26" style="fill:#fff"></path><path d="M428.5,225.61c-.33,0-.66,0-1,0a86,86,0,0,1-14.39-2.28.5.5,0,1,1,.24-1,85.39,85.39,0,0,0,14.18,2.25,33.41,33.41,0,0,0,11.33-1.76c.56-.36,6.12-3.89,7.58-5.35,1.73-1.73,7.5-11.27,7.12-13.15a1.2,1.2,0,0,0-.75-1,3.31,3.31,0,0,0-2.75.86c-1,.87-7.38,8.64-10.59,12.63a.5.5,0,0,1-.54.16c-5.61-1.74-20.84-5.85-23.85-3.91-3.68,2.38-4.82,4.14-4.83,4.15a.5.5,0,1,1-.85-.53c0-.07,1.24-1.93,5.14-4.46s21.13,2.7,24.37,3.7c1.43-1.78,9.23-11.44,10.51-12.51a4.27,4.27,0,0,1,3.72-1,2.15,2.15,0,0,1,1.4,1.77c.53,2.63-6,12.65-7.39,14.06-1.61,1.61-7.55,5.35-7.8,5.51l-.09.05A34,34,0,0,1,428.5,225.61Z" style="fill:#263238"></path><polygon points="385.81 240.14 393.98 225.69 413.78 237.63 408.75 249.89 385.81 240.14" style="fill:#fff"></polygon><path d="M408.75,250.39a.71.71,0,0,1-.2,0l-22.94-9.75a.45.45,0,0,1-.27-.3.47.47,0,0,1,0-.4l8.17-14.46a.52.52,0,0,1,.31-.23.49.49,0,0,1,.39,0L414,237.2a.51.51,0,0,1,.2.62l-5,12.26a.51.51,0,0,1-.27.27A.65.65,0,0,1,408.75,250.39ZM386.52,239.9l22,9.33,4.67-11.39-19-11.46Z" style="fill:#263238"></path><path d="M278.17,237.07l7.71,213h55.94L330.5,298.28s30.48,33.31,33.94,35.19,7.86-4.08,7.86-4.08l41.16-80.76L389,235.12l-27,44-4.09-2.83-3.14,1.57s-28-49.33-30.17-50.59-12.57-.63-12.57-.63l-27,2.2-10-2Z" style="fill:#000000"></path><path d="M341.82,450.56H285.88a.51.51,0,0,1-.5-.49l-7.71-212.92L274.43,227a.51.51,0,0,1,.11-.49.5.5,0,0,1,.47-.16l10,2,26.95-2.2c1.09-.06,10.6-.6,12.86.7s26.33,43.68,30.12,50.36l2.72-1.36a.52.52,0,0,1,.51,0l3.65,2.53,26.75-43.55a.5.5,0,0,1,.66-.17l24.51,13.51a.51.51,0,0,1,.21.67l-41.17,80.76c-.23.32-4.74,6.37-8.54,4.29-3.17-1.73-27.76-28.43-33.09-34.23L342.32,450a.5.5,0,0,1-.14.38A.48.48,0,0,1,341.82,450.56Zm-55.46-1h54.92L330,298.32a.5.5,0,0,1,.31-.5.48.48,0,0,1,.56.12C341.4,309.44,362,331.57,364.68,333c3,1.66,7.17-3.88,7.22-3.94l40.9-80.26-23.67-13.05-26.78,43.59a.48.48,0,0,1-.32.23.49.49,0,0,1-.39-.08l-3.84-2.66-2.88,1.44a.49.49,0,0,1-.65-.2c-11.14-19.64-28.31-49.27-30-50.41-1.69-1-9.44-.73-12.29-.56l-27,2.2h-.14l-9.2-1.82,3,9.42a.51.51,0,0,1,0,.13Z" style="fill:#263238"></path><polygon points="330.5 298.28 330.12 282.95 342.25 310.25 330.5 298.28" style="fill:#263238"></polygon><path d="M342.25,310.75a.47.47,0,0,1-.35-.15l-11.75-12a.53.53,0,0,1-.15-.34L329.62,283a.51.51,0,0,1,.39-.5.49.49,0,0,1,.57.28l12.13,27.3a.49.49,0,0,1-.18.61A.47.47,0,0,1,342.25,310.75ZM331,298.07l9.67,9.86-10-22.48Z" style="fill:#263238"></path><path d="M330.19,294.06a.5.5,0,0,1-.5-.46l-2.83-41.48a.5.5,0,0,1,1-.07l2.83,41.48a.5.5,0,0,1-.47.53Z" style="fill:#263238"></path><path d="M331.76,280.24h-.07a.5.5,0,0,1-.42-.56c.3-2.16,1.81-19.56,1.82-19.73a.53.53,0,0,1,.55-.46.5.5,0,0,1,.45.54c-.06.72-1.52,17.6-1.83,19.79A.51.51,0,0,1,331.76,280.24Z" style="fill:#263238"></path><path d="M334.28,291.55h-.08a.49.49,0,0,1-.42-.57l3.46-22a.5.5,0,1,1,1,.15l-3.46,22A.49.49,0,0,1,334.28,291.55Z" style="fill:#263238"></path><path d="M363.83,291.22a.51.51,0,0,1-.49-.42l-1.59-9.09a.5.5,0,1,1,1-.17l1.6,9.09a.51.51,0,0,1-.41.58Z" style="fill:#263238"></path><path d="M354.91,286.76h0a.52.52,0,0,1-.49-.51l.1-6.21a.55.55,0,0,1,.51-.49.5.5,0,0,1,.49.51l-.1,6.2A.5.5,0,0,1,354.91,286.76Z" style="fill:#263238"></path><path d="M288.4,335.54a.32.32,0,0,1-.17,0,.5.5,0,0,1-.31-.63c.76-2.12,1.52-4.52,2.26-7.14a.5.5,0,0,1,1,.27c-.75,2.64-1.52,5.07-2.28,7.2A.5.5,0,0,1,288.4,335.54Z" style="fill:#263238"></path><path d="M292,323.59l-.13,0a.5.5,0,0,1-.36-.6c5.32-21,8.6-48.57,9-51.78l-12.31-8a.49.49,0,0,1-.21-.52.48.48,0,0,1,.4-.39l14.55-2.38c-1-1.3-3.42-4.33-5.77-7.85-3.11-4.66-13.1-20-13.2-20.12a.5.5,0,0,1,.84-.54c.1.15,10.09,15.45,13.19,20.1s6.23,8.41,6.26,8.44a.53.53,0,0,1,.08.5.49.49,0,0,1-.39.32l-14.12,2.3,11.49,7.47a.5.5,0,0,1,.22.48c0,.29-3.38,29.9-9,52.21A.5.5,0,0,1,292,323.59Z" style="fill:#263238"></path><path d="M231.2,207.16l.09,21.37,24.61,14.88,19.94-13.82L274,205.35s-15.41,10-17.45,10.42S231.2,207.16,231.2,207.16Z" style="fill:#fff"></path><path d="M255.9,243.91a.48.48,0,0,1-.26-.07L231,229a.53.53,0,0,1-.25-.43l-.09-21.37a.51.51,0,0,1,.68-.47c9,3.48,23.66,8.88,25.09,8.59s11.12-6.37,17.29-10.35a.48.48,0,0,1,.49,0,.51.51,0,0,1,.28.41l1.81,24.24a.5.5,0,0,1-.22.45l-19.93,13.82A.52.52,0,0,1,255.9,243.91Zm-24.11-15.66,24.09,14.57,19.44-13.48-1.73-23.12c-3.28,2.12-15,9.62-16.9,10s-19.87-6.39-25-8.37Z" style="fill:#263238"></path><polygon points="231.54 224.44 254.91 218.65 231.29 209.01 231.54 224.44" style="fill:#263238"></polygon><path d="M231.54,224.93a.5.5,0,0,1-.31-.1.49.49,0,0,1-.19-.39L230.79,209a.51.51,0,0,1,.22-.42.49.49,0,0,1,.47,0l23.62,9.64a.5.5,0,0,1,.31.5.52.52,0,0,1-.38.45l-23.37,5.78Zm.27-15.17.22,14,21.27-5.27Z" style="fill:#263238"></path><path d="M274,180.42s-.23-9.74,2.49-15.18a12.78,12.78,0,0,0,0-11.33L279,153a43.2,43.2,0,0,0-4.3-3.17c-.68-.23.45-6.34-1.59-9.52s-4.08-3.85-4.08-3.85l-1.13,4.08s-6.12-7.25-9.52-8.61S245.25,124,245,127.4s1.14,4.76,1.14,4.76-6.8-3.86-12-2.5-10.2,4.54-9.07,5.67,6.12,5.89,6.12,5.89-11.55.45-12.91,1.81a10,10,0,0,0-2,3.63l6.57,3.4s-5.89-.46-8.16,3.17-2.72,5-1.13,5.66a38.08,38.08,0,0,1,4.53,2.72s-1.59,2.72.23,7.25,6.11,14.51,6.11,14.51,1.59-16.32,2.72-19.49,15.19-10.65,17.22-11.33,16.32,3.17,17.23,3.17,6.79,22.89,8.15,23.79S274,180.42,274,180.42Z" style="fill:#263238"></path><path d="M224.4,183.87a.5.5,0,0,1-.45-.31c0-.1-4.33-10-6.13-14.51-1.49-3.72-.78-6.29-.39-7.26a33.65,33.65,0,0,0-4.1-2.44,1.87,1.87,0,0,1-1.16-1.14c-.34-1.09.43-2.62,2.07-5.25,1.54-2.47,4.57-3.18,6.6-3.36L216,147.1a.48.48,0,0,1-.25-.58,10.39,10.39,0,0,1,2.16-3.84c1.24-1.24,8.8-1.74,12.08-1.91-1.47-1.41-4.44-4.25-5.28-5.09a1,1,0,0,1-.26-1.06c.49-1.81,5.45-4.37,9.55-5.44,3.92-1,8.6.74,10.93,1.81a9,9,0,0,1-.43-3.62,1.41,1.41,0,0,1,.72-1.22c1.51-.83,4.92.88,9.57,3.4,1.48.8,2.88,1.56,3.77,1.92,2.87,1.14,7.44,6.15,9.1,8l.88-3.18a.52.52,0,0,1,.25-.31.45.45,0,0,1,.39,0c.09,0,2.23.77,4.34,4,1.37,2.13,1.39,5.42,1.4,7.6a13,13,0,0,0,.08,1.78,44.76,44.76,0,0,1,4.31,3.19.52.52,0,0,1,.18.48.51.51,0,0,1-.33.38l-2,.72a13.14,13.14,0,0,1-.24,11.27c-2.63,5.27-2.44,14.85-2.44,14.95a.51.51,0,0,1-.15.36.47.47,0,0,1-.35.15c-.13,0-3.12,0-4.58-1-.74-.49-1.82-3.75-4.69-13.3-1.29-4.27-2.87-9.54-3.41-10.43-.46-.06-1.47-.3-3.63-.8-3.87-.91-11.92-2.81-13.22-2.38-2.12.71-15.88,8.14-16.91,11-1.09,3.08-2.67,19.2-2.69,19.36a.5.5,0,0,1-.42.45Zm-2.18-33.33c-1.48,0-5.45.26-7.14,3-1.33,2.14-2.18,3.71-2,4.42,0,.13.15.33.61.53a37.85,37.85,0,0,1,4.61,2.76.5.5,0,0,1,.15.67s-1.43,2.59.26,6.81c1.33,3.32,4,9.64,5.35,12.72.46-4.44,1.64-15.12,2.55-17.69,1.27-3.55,15.88-11.08,17.54-11.63,1.44-.49,7.33.83,13.75,2.34,1.73.41,3.37.79,3.63.8.66,0,.91.38,4.14,11.12,1.55,5.13,3.66,12.14,4.31,12.77a8.28,8.28,0,0,0,3.5.8c0-2.13.14-10.07,2.55-14.89a12.39,12.39,0,0,0,0-10.87.5.5,0,0,1,.27-.71l1.66-.6a31.18,31.18,0,0,0-3.46-2.54c-.59-.19-.59-.91-.61-2.66,0-2.06,0-5.17-1.24-7.06a10.13,10.13,0,0,0-3.34-3.41l-1,3.5a.5.5,0,0,1-.37.36.51.51,0,0,1-.49-.17c-.06-.07-6.08-7.17-9.32-8.47a42.87,42.87,0,0,1-3.88-2c-3-1.61-7.46-4-8.61-3.41-.05,0-.18.1-.2.41-.2,3.09,1,4.36,1,4.38a.49.49,0,0,1,0,.65.5.5,0,0,1-.64.13c-.06,0-6.68-3.73-11.64-2.44-4.64,1.21-8.56,3.71-8.84,4.74,1.12,1.2,6.07,5.92,6.12,6a.5.5,0,0,1-.33.86c-4.72.18-11.74.82-12.58,1.67a8.89,8.89,0,0,0-1.78,3l6.19,3.2a.51.51,0,0,1,.25.58.52.52,0,0,1-.52.37S222.56,150.54,222.22,150.54Zm52.65-1.18Z" style="fill:#263238"></path><path d="M236.64,146.89s-15.18,15-15.41,17.44,6.57,41.24,7,42.6,16.54,11.56,21.52,12.69,10.2-.23,11.56-1.36,14.5-8.61,15.86-14.73S270,155.72,269,154.14,246.84,142.35,236.64,146.89Z" style="fill:#fff"></path><path d="M253.72,220.54a18.65,18.65,0,0,1-4.05-.43c-4.75-1.08-21.32-11.31-21.89-13-.62-1.86-7.27-40.32-7.05-42.8s13-15.24,15.56-17.76a.4.4,0,0,1,.15-.1c10.08-4.48,31.85,5.38,33,7.46.94,1.64,9.6,43.47,8.21,49.75-1.16,5.23-10.42,11.29-14.37,13.88-.81.53-1.44.94-1.66,1.13C260.49,219.62,257.27,220.54,253.72,220.54Zm-16.79-73.23c-5.83,5.74-15.05,15.39-15.2,17.07-.2,2.25,6.43,40.69,7,42.39.7,1.32,16.16,11.23,21.16,12.36s9.92-.24,11.13-1.25c.26-.22.85-.61,1.75-1.2,3.85-2.52,12.87-8.42,13.94-13.26,1.31-5.88-7.2-47.34-8.1-49C267.77,153.13,247,143,236.93,147.31Z" style="fill:#263238"></path><path d="M236.64,146.89s5.26,2.6,7.43,3.57,4.57-2.41,4.57-2.41,18.63,6.39,20.4,6.09-5-7.3-12-9.95S236.68,141.87,236.64,146.89Z" style="fill:#263238"></path><path d="M268.94,154.64c-2.41,0-16.44-4.74-20.12-6-.7.86-2.84,3.21-5,2.28s-7.39-3.56-7.44-3.59a.5.5,0,0,1-.28-.45,3.5,3.5,0,0,1,1.73-2.9c4-2.71,13.85-2.36,19.39-.25,6.14,2.33,12.74,8.36,12.56,10.17a.8.8,0,0,1-.69.73Zm-20.3-7.09a.51.51,0,0,1,.17,0c6.91,2.37,18.16,6,20,6.07-.42-1.37-5.82-6.68-11.9-9-5.28-2-14.84-2.33-18.46.15a2.67,2.67,0,0,0-1.28,1.78c1.15.56,5.27,2.6,7.11,3.41,1.47.65,3.36-1.4,4-2.24A.48.48,0,0,1,248.64,147.55Z" style="fill:#263238"></path><path d="M250.54,189.78a2.38,2.38,0,0,1-.39,0l-1.27-.21a16.84,16.84,0,0,1-2.72.22,2.78,2.78,0,0,1-2.53-2.19A.51.51,0,0,1,244,187a.5.5,0,0,1,.6.36c0,.06.39,1.44,1.56,1.44a15.06,15.06,0,0,0,2.62-.22H249l1.36.22c1.21.21,3.82-1.09,4-1.66s-1.13-6.36-2-10.55c-1-4.92-1.64-8-1.64-8.59,0-1.48,2.76-4.51,3.31-5.1a.51.51,0,0,1,.71,0,.5.5,0,0,1,0,.71c-1.26,1.35-3,3.62-3,4.42,0,.56.86,4.72,1.62,8.39,1.61,7.79,2.12,10.47,2,11C255,188.5,252.14,189.78,250.54,189.78Z" style="fill:#263238"></path><path d="M255.57,187.79a5.64,5.64,0,0,1-.9-.08.5.5,0,0,1-.39-.59.49.49,0,0,1,.59-.39,2.79,2.79,0,0,0,1.68-.15.55.55,0,0,0,.22-.35l.22-1.36a.51.51,0,0,1,.58-.41.49.49,0,0,1,.41.57l-.23,1.36a1.52,1.52,0,0,1-.63,1A2.78,2.78,0,0,1,255.57,187.79Z" style="fill:#263238"></path><path d="M248.87,189.53a.47.47,0,0,1-.28-.09,3.31,3.31,0,0,1-1.09-3.74.5.5,0,1,1,.94.32,2.31,2.31,0,0,0,.73,2.61.5.5,0,0,1-.3.9Z" style="fill:#263238"></path><path d="M244.8,203.35a.54.54,0,0,1-.34-.12.51.51,0,0,1,0-.71c.08-.09,7.81-8.61,16.65-5.12a.5.5,0,1,1-.37.93c-8.19-3.23-15.46,4.77-15.53,4.86A.5.5,0,0,1,244.8,203.35Z" style="fill:#263238"></path><path d="M229.16,172.13a.87.87,0,0,1-.35-.07,1,1,0,0,1-.58-1.28,14.5,14.5,0,0,1,5.14-6.37c3.82-2.55,10.44.47,10.72.6a1,1,0,0,1-.85,1.82c-1.62-.76-6.37-2.36-8.76-.76a12.7,12.7,0,0,0-4.38,5.41A1,1,0,0,1,229.16,172.13Z" style="fill:#263238"></path><path d="M268.82,167.83a1,1,0,0,1-.89-.53A10.32,10.32,0,0,0,263,163a5.41,5.41,0,0,0-5.32.94,1,1,0,0,1-1.42-.07,1,1,0,0,1,.07-1.41,7.41,7.41,0,0,1,7.37-1.33,12.3,12.3,0,0,1,6,5.22,1,1,0,0,1-.41,1.36A1,1,0,0,1,268.82,167.83Z" style="fill:#263238"></path><ellipse cx="239.25" cy="175.55" rx="1.7" ry="2.38" style="fill:#263238"></ellipse><path d="M261.23,172.15c0,1.31-.77,2.38-1.7,2.38s-1.7-1.07-1.7-2.38.76-2.38,1.7-2.38S261.23,170.84,261.23,172.15Z" style="fill:#263238"></path><path d="M224,180.87s-4.3-6.11-6.34-1.36,0,8.61,2,11.79,6.34,4.76,6.34,4.76Z" style="fill:#fff"></path><path d="M226,196.56a.47.47,0,0,1-.17,0c-.18-.06-4.49-1.68-6.59-5-2.29-3.56-4.12-7.5-2.08-12.25a3,3,0,0,1,2.32-2.11c2.27-.23,4.63,3,4.89,3.38a.43.43,0,0,1,.09.22l2,15.18a.52.52,0,0,1-.19.46A.51.51,0,0,1,226,196.56Zm-6.28-18.36h-.14c-.6.06-1.1.57-1.5,1.5-1.95,4.54,0,8.22,2,11.32a13.17,13.17,0,0,0,5.31,4.22l-1.91-14.19C222.82,180.17,221.08,178.2,219.71,178.2Z" style="fill:#263238"></path><path d="M274.48,173.4s.45-4.31,2.27-3.86,5.21,3.86,3.17,8.61-4.08,9.75-4.08,9.75L274,178.61Z" style="fill:#fff"></path><path d="M275.84,188.4h0a.51.51,0,0,1-.44-.41l-1.81-9.29a.61.61,0,0,1,0-.14l.45-5.21h0c0-.32.37-3.16,1.64-4.05a1.51,1.51,0,0,1,1.25-.23,6.08,6.08,0,0,1,3.47,3.18,7,7,0,0,1,0,6.11c-2,4.7-4.06,9.69-4.08,9.74A.49.49,0,0,1,275.84,188.4Zm-1.31-9.82,1.48,7.59c.77-1.85,2.11-5.1,3.45-8.21a6.1,6.1,0,0,0,0-5.27,5.1,5.1,0,0,0-2.82-2.66.49.49,0,0,0-.44.08c-.67.47-1.1,2.29-1.21,3.33Z" style="fill:#263238"></path></g><g id="freepik--Line--inject-176"><path d="M469.59,450.56H50.44a.5.5,0,0,1-.5-.5.5.5,0,0,1,.5-.5H469.59a.5.5,0,0,1,.5.5A.51.51,0,0,1,469.59,450.56Z" style="fill:#263238"></path></g></svg>
