<?xml version="1.0" standalone="no"?>
<!DOCTYPE svg PUBLIC "-//W3C//DTD SVG 20010904//EN"
 "http://www.w3.org/TR/2001/REC-SVG-20010904/DTD/svg10.dtd">
<svg version="1.0" xmlns="http://www.w3.org/2000/svg"
 width="500.000000pt" height="500.000000pt" viewBox="0 0 500.000000 500.000000"
 preserveAspectRatio="xMidYMid meet">
<metadata>
Created by potrace 1.14, written by Peter Selinger 2001-2017
</metadata>
<g transform="translate(0.000000,500.000000) scale(0.100000,-0.100000)"
fill="#000000" stroke="none">
<path d="M1075 4985 c-490 -77 -894 -430 -1025 -898 -50 -176 -50 -171 -50
-1587 0 -1416 0 -1411 50 -1587 114 -408 455 -749 863 -863 176 -50 171 -50
1587 -50 1416 0 1411 0 1587 50 408 114 749 455 863 863 50 176 50 171 50
1587 0 1416 0 1411 -50 1587 -114 408 -455 749 -863 863 -177 50 -169 50
-1597 49 -1019 -1 -1354 -4 -1415 -14z m1933 -1133 c153 -47 292 -133 403
-248 109 -115 169 -218 216 -371 24 -79 27 -103 27 -243 0 -140 -3 -164 -27
-243 -37 -119 -94 -229 -166 -321 -58 -73 -181 -180 -242 -211 l-28 -15 68
-104 c162 -246 260 -486 326 -798 l23 -110 -171 5 c-194 5 -281 23 -400 83
-268 134 -419 390 -473 798 -18 139 -14 349 9 431 49 176 160 281 316 301 l55
7 -40 36 c-37 33 -41 41 -46 97 -6 63 -33 127 -64 155 -11 9 -39 27 -64 40
-40 22 -58 24 -170 24 -106 -1 -134 -4 -182 -24 -209 -82 -350 -301 -433 -668
-13 -59 -43 -216 -65 -348 -107 -614 -201 -815 -442 -948 -47 -26 -89 -47 -92
-47 -3 0 -6 619 -6 1375 l0 1376 798 -3 c794 -3 797 -4 870 -26z m-383 -817
c53 -52 16 -139 -57 -137 -59 2 -100 78 -65 123 34 44 87 50 122 14z"/>
<path d="M1583 3673 l-43 -4 1 -1037 c1 -924 2 -1033 15 -1003 27 60 73 260
119 516 59 325 89 457 130 582 118 354 329 571 615 629 145 29 324 5 432 -59
93 -54 176 -172 193 -272 5 -24 20 -54 40 -75 63 -69 106 -173 120 -288 8 -69
4 -72 -46 -46 -122 63 -309 13 -365 -98 -79 -155 -41 -565 73 -793 91 -179
226 -284 415 -320 84 -16 83 -21 27 141 -77 227 -202 445 -364 639 -41 50 -75
93 -75 96 0 4 35 19 78 34 138 48 210 93 303 185 73 73 94 100 132 180 58 123
72 182 71 310 0 123 -19 205 -69 305 -72 143 -172 242 -320 316 -138 68 -145
69 -830 67 -335 -1 -629 -3 -652 -5z"/>
</g>
</svg>
