<?xml version="1.0" encoding="utf-8"?><svg version="1.1" id="Layer_1" xmlns="http://www.w3.org/2000/svg" xmlns:xlink="http://www.w3.org/1999/xlink" x="0px" y="0px" viewBox="0 0 102.55 122.88" style="enable-background:new 0 0 102.55 122.88" xml:space="preserve"><style type="text/css">.st0{fill-rule:evenodd;clip-rule:evenodd;}</style><g><path class="st0" d="M102.55,122.88H0V0h77.66l24.89,26.44L102.55,122.88L102.55,122.88z M29.82,45.51c4.33,0,7.84,3.5,7.84,7.83 c0,4.32-3.51,7.83-7.84,7.83c-4.32,0-7.83-3.51-7.83-7.83C21.99,49.01,25.5,45.51,29.82,45.51L29.82,45.51z M62.71,75.27 l14.02-24.24l2.07-3.57l1.52,3.84l9.45,44.84h-75.3v-9.12l2.87-0.1l5.26-0.27l6.06-14.81l3.77,0.2l2.84,9.98l6.92,0l8-20.59 l1.43-3.69l2.12,3.33L62.71,75.27L62.71,75.27L62.71,75.27z M96.13,115.98V32.36H73.45V5.91H6.51v110.07H96.13L96.13,115.98 L96.13,115.98z"/></g></svg>